<svg class="icon" style="width: 1em;height: 1em;vertical-align: middle;fill: currentColor;overflow: hidden;" viewBox="0 0 1024 1024" version="1.1" xmlns="http://www.w3.org/2000/svg" p-id="4466"><path d="M752 0C639.28 0 547.032 89.28 542.208 200.832a381.16 381.16 0 0 0-30.296 58.824 381.824 381.824 0 0 0-30.128-58.84C476.96 89.28 384.72 0 272 0H182v30C182 145.792 276.208 240 392 240h43.408c16.344 27.624 29.096 59.208 37.2 92.32l0.576 3.816-52.584 78.88-44.768-29.848-17.384 16.896a187.336 187.336 0 0 0-56.448 133.6c0 102.752 83.584 186.336 186.336 186.336h47.328c102.752 0 186.336-83.584 186.336-186.336a187.352 187.352 0 0 0-56.448-133.6l-17.384-16.904-44.768 29.848-52.872-79.296c7.816-34.104 20.72-66.6 38.048-95.712H632c115.792 0 210-94.208 210-210V0H752zM392 180c-72.44 0-133.048-51.616-146.984-120H272c72.44 0 133.048 51.616 146.984 120H392z m247.168 283.28a127.08 127.08 0 0 1 22.832 72.384c0 69.664-56.672 126.336-126.336 126.336h-47.328c-69.664 0-126.336-56.672-126.336-126.336 0-25.92 8.136-51.304 22.832-72.392L512 548.056l127.168-84.784z m-85.696-14.984L512 475.944l-41.472-27.648L512 386.08l41.472 62.208zM632 180h-26.984C618.952 111.616 679.56 59.8 752 59.8h26.984C765.048 128.184 704.44 180 632 180z m125.848 242H1024V1024H0V422h266.152l-12.48 39.12a245.12 245.12 0 0 0-11.672 74.552c0 135.824 110.504 246.328 246.328 246.328h47.344c135.824 0 246.328-110.504 246.328-246.328a245.12 245.12 0 0 0-11.672-74.56l-12.48-39.112zM964 964V482h-126.792c3.184 17.728 4.792 35.672 4.792 53.672 0 168.912-137.416 306.328-306.328 306.328h-47.344c-168.912 0-306.328-137.416-306.328-306.328 0-18 1.6-35.944 4.792-53.672H60v482h904z" fill="#40BEFE" p-id="4467"></path></svg>